<?xml version="1.0" encoding="UTF-8"?>
<svg version="1.1" fill="#e12a00" xmlns="http://www.w3.org/2000/svg" x="0px" y="0px"
  viewBox="0 0 512 512" enable-background="new 0 0 512 512" xml:space="preserve">
  <g>
    <path d="M504.1,177.2H228.4v-27.6c0-4.4-3.5-7.9-7.9-7.9h-35.4c-4.4,0-7.9,3.5-7.9,7.9v27.6h-63c-3.4,0-6.4,2.2-7.5,5.4L72.3,285.9
      l-68,34c-2.7,1.3-4.4,4.1-4.4,7v106.3c0,4.4,3.5,7.9,7.9,7.9h63.8c3.7,20.1,21.4,35.4,42.6,35.4s38.8-15.3,42.6-35.4h28.3h205.6
      c3.7,20.1,21.4,35.4,42.6,35.4s38.8-15.3,42.6-35.4h28.3c4.4,0,7.9-3.5,7.9-7.9V185.1C512,180.8,508.5,177.2,504.1,177.2z
       M193,157.5h19.7v19.7H193V157.5z M119.9,193h57.3v90.6H89.7L119.9,193z M15.8,331.8l64.9-32.4h96.6v126h-20.4
      c-3.7-20.1-21.4-35.4-42.6-35.4s-38.8,15.3-42.6,35.4H15.8V331.8z M114.2,460.8c-15.2,0-27.6-12.4-27.6-27.6s12.4-27.6,27.6-27.6
      s27.6,12.4,27.6,27.6S129.4,460.8,114.2,460.8z M433.2,460.8c-15.2,0-27.6-12.4-27.6-27.6s12.4-27.6,27.6-27.6s27.6,12.4,27.6,27.6
      S448.4,460.8,433.2,460.8z M496.2,425.4h-20.4c-3.7-20.1-21.4-35.4-42.6-35.4s-38.8,15.3-42.6,35.4H193V291.4V193h27.6h275.7V425.4
      z"/>
    <path d="M291.4,334.8H319v27.6c0,4.4,3.5,7.9,7.9,7.9h35.4c4.4,0,7.9-3.5,7.9-7.9v-27.6h27.6c4.4,0,7.9-3.5,7.9-7.9v-35.4
      c0-4.4-3.5-7.9-7.9-7.9h-27.6V256c0-4.4-3.5-7.9-7.9-7.9h-35.4c-4.4,0-7.9,3.5-7.9,7.9v27.6h-27.6c-4.4,0-7.9,3.5-7.9,7.9v35.4
      C283.6,331.2,287.1,334.8,291.4,334.8z M299.3,299.3h27.6c4.4,0,7.9-3.5,7.9-7.9v-27.6h19.7v27.6c0,4.4,3.5,7.9,7.9,7.9h27.6V319
      h-27.6c-4.4,0-7.9,3.5-7.9,7.9v27.6h-19.7v-27.6c0-4.4-3.5-7.9-7.9-7.9h-27.6V299.3z"/>
    <path d="M114.2,334.8h35.4c4.4,0,7.9-3.5,7.9-7.9s-3.5-7.9-7.9-7.9h-35.4c-4.4,0-7.9,3.5-7.9,7.9S109.9,334.8,114.2,334.8z"/>
    <path d="M261.6,119.8L297,84.3c3.1-3.1,3.1-8.1,0-11.1c-3.1-3.1-8.1-3.1-11.1,0l-35.4,35.4c-3.1,3.1-3.1,8.1,0,11.1
      c1.5,1.5,3.6,2.3,5.6,2.3C258,122.1,260,121.3,261.6,119.8z"/>
    <path d="M108.6,73.2c-3.1,3.1-3.1,8.1,0,11.1l35.4,35.4c1.5,1.5,3.6,2.3,5.6,2.3c2,0,4-0.8,5.6-2.3c3.1-3.1,3.1-8.1,0-11.1
      l-35.4-35.4C116.7,70.1,111.7,70.1,108.6,73.2z"/>
    <path d="M210.7,114.2V43.3c0-4.4-3.5-7.9-7.9-7.9S195,39,195,43.3v70.9c0,4.4,3.5,7.9,7.9,7.9S210.7,118.6,210.7,114.2z"/>
  </g>
</svg>
