<?xml version="1.0" encoding="UTF-8"?>
<svg width="260px" height="144px" viewBox="0 0 260 144" version="1.1" xmlns="http://www.w3.org/2000/svg" xmlns:xlink="http://www.w3.org/1999/xlink">
    <!-- Generator: Sketch 42 (36781) - http://www.bohemiancoding.com/sketch -->
    <title>Page 1</title>
    <desc>Created with Sketch.</desc>
    <defs></defs>
    <g id="Page-1" stroke="none" stroke-width="1" fill="none" fill-rule="evenodd">
        <g id="Artboard" transform="translate(-451.000000, -199.000000)" fill="#30AABC">
            <g id="Page-1" transform="translate(451.000000, 199.000000)">
                <path d="M130,40 C128.895333,40 128,39.1019275 128,37.9938813 L128,2.00611866 C128,0.897403748 128.895333,0 130,0 C131.104667,0 132,0.897403748 132,2.00611866 L132,37.9938813 C132,39.1019275 131.104667,40 130,40" id="Fill-1"></path>
                <path d="M112.943933,39 C112.10661,39 111.320677,38.5088326 111.015075,37.7159109 L107.127208,27.6365295 C106.734584,26.6208842 107.28138,25.4942037 108.346877,25.1212562 C109.41443,24.7470023 110.592987,25.2682145 110.985611,26.2838598 L114.872792,36.3638943 C115.265416,37.3795396 114.71862,38.5055669 113.653123,38.8785145 C113.418782,38.9608111 113.179645,39 112.943933,39" id="Fill-3"></path>
                <path d="M94.0152592,40 C93.5078276,40 93.0010575,39.8064121 92.6140334,39.4192362 L81.583515,28.397321 C80.8068204,27.6216434 80.8054973,26.3626589 81.5795455,25.5849924 C82.3529322,24.8066628 83.6099336,24.8046739 84.3859666,25.5810145 L95.416485,36.6029297 C96.1931796,37.3786074 96.1945027,38.6375918 95.4204545,39.4152584 C95.0327688,39.8050861 94.5246756,40 94.0152592,40" id="Fill-5"></path>
                <path d="M147.988019,39 C147.760109,39 147.528886,38.9594393 147.302301,38.8742618 C146.272067,38.4882592 145.743368,37.3228152 146.122998,36.2716172 L151.14696,22.3288779 C151.525265,21.2770038 152.666141,20.7382226 153.697699,21.1255772 C154.727933,21.5115799 155.256632,22.6770239 154.877002,23.7282219 L149.85304,37.6709612 C149.557552,38.4916393 148.79763,39 147.988019,39" id="Fill-7"></path>
                <path d="M166.050223,40 C165.523934,40 164.999012,39.7986129 164.598485,39.3958387 C163.798799,38.5923453 163.80085,37.2908642 164.602586,36.4901107 L177.50214,23.600652 C178.30456,22.7985286 179.601829,22.7998986 180.401515,23.604077 C181.201201,24.4075704 181.19915,25.7097366 180.397414,26.51049 L167.49786,39.3999487 C167.097334,39.7999829 166.574462,40 166.050223,40" id="Fill-9"></path>
                <path d="M154.995912,19 C154.767097,19 154.534956,18.9606679 154.307471,18.8780704 C153.273147,18.5037597 152.742349,17.3742723 153.123486,16.3542593 L156.13134,8.28855231 C156.510481,7.26919483 157.658547,6.74607762 158.692871,7.12169938 C159.72653,7.49601006 160.257327,8.62615302 159.876856,9.64551049 L156.868337,17.7112175 C156.572341,18.5070374 155.808737,19 154.995912,19" id="Fill-11"></path>
                <path d="M106.056698,22 C105.265297,22 104.522469,21.515454 104.233627,20.7332216 L100.119898,9.60090692 C99.7494554,8.5989535 100.266262,7.4881061 101.272675,7.11954189 C102.280383,6.75033332 103.396245,7.26516341 103.766688,8.26711684 L107.879769,19.3994315 C108.250859,20.4013849 107.734053,21.5122323 106.726992,21.8801522 C106.505504,21.9613394 106.279482,22 106.056698,22" id="Fill-13"></path>
                <path d="M130,144 C128.895333,144 128,143.101928 128,141.993881 L128,106.006119 C128,104.897404 128.895333,104 130,104 C131.104667,104 132,104.897404 132,106.006119 L132,141.993881 C132,143.101928 131.104667,144 130,144" id="Fill-15"></path>
                <path d="M151.943933,119 C151.10661,119 150.320677,118.508842 150.015075,117.715935 L146.127208,107.636742 C145.734584,106.621116 146.28138,105.494457 147.346877,105.121516 C148.41443,104.746616 149.592987,105.268472 149.985611,106.284098 L153.872792,116.363944 C154.265416,117.37957 153.71862,118.505576 152.653123,118.878517 C152.418782,118.960812 152.179645,119 151.943933,119" id="Fill-17"></path>
                <path d="M177.015259,119 C176.507828,119 176.001058,118.806415 175.614033,118.419246 L164.583515,107.397513 C163.80682,106.621848 163.805497,105.362885 164.579546,104.585231 C165.352932,103.806251 166.609934,103.804925 167.385967,104.581253 L178.416485,115.602986 C179.19318,116.378651 179.194503,117.637614 178.420454,118.415268 C178.032769,118.805089 177.524676,119 177.015259,119" id="Fill-19"></path>
                <path d="M106.988019,123 C106.760109,123 106.528886,122.95944 106.302301,122.874264 C105.272067,122.488267 104.743368,121.322841 105.122998,120.271658 L110.14696,106.329129 C110.525927,105.277271 111.666803,104.737822 112.697699,105.125847 C113.727933,105.511844 114.256632,106.67727 113.877002,107.728452 L108.85304,121.670981 C108.557552,122.491647 107.79763,123 106.988019,123" id="Fill-21"></path>
                <path d="M82.0504999,121 C81.5242054,121 80.9992778,120.798613 80.5987472,120.395839 C79.7990529,119.592345 79.8004199,118.291549 80.6028482,117.490111 L93.5018484,104.600652 C94.3022262,103.798529 95.600875,103.799899 96.4012528,104.604077 C97.2009471,105.40757 97.1995801,106.709052 96.3971518,107.51049 L83.4981516,120.399949 C83.0983044,120.799983 82.5747439,121 82.0504999,121" id="Fill-23"></path>
                <path d="M101.995912,137 C101.767097,137 101.534956,136.960668 101.307471,136.878071 C100.273147,136.503763 99.7423495,135.374282 100.123486,134.354276 L103.13134,126.288618 C103.510481,125.268612 104.659212,124.746153 105.692871,125.121773 C106.72653,125.496081 107.257327,126.626217 106.876856,127.645568 L103.868337,135.711225 C103.572341,136.50704 102.808737,137 101.995912,137" id="Fill-25"></path>
                <path d="M158.056698,136 C157.265297,136 156.522469,135.515465 156.233627,134.73325 L152.119898,123.601181 C151.749455,122.59925 152.266262,121.488427 153.272675,121.119871 C154.281031,120.750026 155.396245,121.264845 155.766688,122.26742 L159.879769,133.399489 C160.250859,134.40142 159.734053,135.512243 158.726992,135.880155 C158.505504,135.96134 158.279482,136 158.056698,136" id="Fill-27"></path>
                <path d="M65.13,86 L65.13,88 C65.04,87.3457944 65,86.6728972 65,86 L65.13,86 Z" id="Fill-29"></path>
                <path d="M56,85 C57.6572368,85 59,86.3434211 59,88 C59,89.6572368 57.6572368,91 56,91 C54.3427632,91 53,89.6572368 53,88 C53,86.3434211 54.3427632,85 56,85" id="Fill-31"></path>
                <path d="M256.04312,94.3166352 C256.04312,95.0973535 255.377045,95.7325142 254.579074,95.6332703 L217.859226,91.5179584 L217.859226,55.7901701 L254.513126,49.8355388 C255.324287,49.7098299 256.04312,50.3383743 256.04312,51.1455577 L256.04312,94.3166352 Z M213.902346,96.0302457 L194.843373,96.0302457 L194.843373,59.5283554 L213.902346,56.4319471 L213.902346,96.0302457 Z M190.886493,86.0132325 C190.886493,90.3931947 187.338491,93.952741 182.972733,93.952741 L161.915536,93.952741 C162.515663,92.8610586 162.858592,91.6039698 162.858592,90.2741021 L162.858592,90.1616257 C162.858592,87.1644612 161.130755,84.5642722 158.624731,83.3137996 C159.534813,82.0500945 160.075587,80.5085066 160.075587,78.8345936 L160.075587,78.7221172 C160.075587,75.963138 158.618136,73.5482042 156.435257,72.205104 C157.49702,70.8884688 158.136715,69.2145558 158.136715,67.3950851 L158.136715,67.2759924 C158.136715,65.205104 157.30577,63.326087 155.973621,61.9499055 C156.006595,61.9035917 156.032974,61.8572779 156.059353,61.8109641 L162.528852,61.8109641 L162.528852,71.4574669 C162.528852,78.0274102 167.857451,83.3667297 174.399493,83.3667297 L176.430691,83.3667297 L176.430691,79.3969754 L174.399493,79.3969754 C170.04033,79.3969754 166.485732,75.8374291 166.485732,71.4574669 L166.485732,57.8412098 L157.952061,57.8412098 C158.248827,56.8950851 158.446671,55.9026465 158.45986,54.9168242 C158.466455,54.8638941 158.466455,54.8043478 158.466455,54.7514178 L154.509575,54.7514178 C154.509575,56.4253308 153.546734,58.3771267 152.557514,59.9120983 C151.904629,60.9310019 151.238554,61.7646503 150.836271,62.221172 C150.361446,62.7438563 149.860241,63.2069943 149.339252,63.6039698 C146.661763,65.694707 143.522638,66.1247637 140.759417,64.7618147 L141.174889,63.6039698 L141.174889,63.5973535 L142.592771,59.6342155 L142.592771,59.6275992 L144.373367,54.6389414 C146.648573,48.7306238 149.220545,47.9697543 151.212175,47.9697543 L175.665694,47.9697543 C175.678884,51.4300567 177.175904,54.5463138 179.543437,56.7098299 C181.653773,58.6483932 184.463158,59.826087 187.536335,59.826087 L190.886493,59.826087 L190.886493,86.0132325 Z M158.901712,90.2741021 C158.901712,92.305293 157.259607,93.952741 155.235003,93.952741 L140.370323,93.952741 C138.34572,93.952741 136.703614,92.305293 136.703614,90.2741021 L136.703614,90.1616257 C136.703614,88.1304348 138.34572,86.4829868 140.370323,86.4829868 L155.235003,86.4829868 C157.259607,86.4829868 158.901712,88.1304348 158.901712,90.1616257 L158.901712,90.2741021 Z M133.914014,78.8345936 L133.914014,78.7221172 C133.914014,76.6909263 135.562714,75.0434783 137.580723,75.0434783 L152.451997,75.0434783 C154.476601,75.0434783 156.118706,76.6909263 156.118706,78.7221172 L156.118706,78.8345936 C156.118706,80.8591682 154.476601,82.5132325 152.451997,82.5132325 L137.580723,82.5132325 C135.562714,82.5132325 133.914014,80.8591682 133.914014,78.8345936 L133.914014,78.8345936 Z M131.975143,67.3950851 L131.975143,67.2759924 C131.975143,65.2514178 133.623843,63.6039698 135.641852,63.6039698 L136.967406,63.6039698 L135.991376,66.3431002 L137.19163,67.2164461 C139.315155,68.7712665 141.689283,69.5255198 144.076601,69.5255198 C147.406975,69.5255198 150.763729,68.0434783 153.507166,65.1654064 C153.935828,65.7608696 154.179835,66.4886578 154.179835,67.2759924 L154.179835,67.3950851 C154.179835,69.4196597 152.531135,71.073724 150.513126,71.073724 L135.641852,71.073724 C133.623843,71.073724 131.975143,69.4196597 131.975143,67.3950851 L131.975143,67.3950851 Z M131.975143,55.8364839 C131.975143,53.805293 133.623843,52.157845 135.641852,52.157845 L141.115536,52.157845 C140.963855,52.5085066 140.812175,52.879017 140.667089,53.2561437 L138.391883,59.6275992 L135.641852,59.6275992 C133.623843,59.6275992 131.975143,57.9801512 131.975143,55.9555766 L131.975143,55.8364839 Z M127.939125,55.9555766 C127.939125,57.9801512 126.29702,59.6275992 124.272416,59.6275992 L121.528979,59.6275992 L119.233989,53.2098299 C119.095498,52.8459357 118.950412,52.4952741 118.805327,52.157845 L124.272416,52.157845 C126.29702,52.157845 127.939125,53.805293 127.939125,55.8364839 L127.939125,55.9555766 Z M127.939125,67.3950851 C127.939125,69.4196597 126.29702,71.073724 124.272416,71.073724 L109.401141,71.073724 C107.383133,71.073724 105.741027,69.4196597 105.741027,67.3950851 L105.741027,67.2759924 C105.741027,66.4886578 105.985035,65.7608696 106.413697,65.1654064 C109.150539,68.0434783 112.500698,69.5255198 115.837666,69.5255198 C118.224984,69.5255198 120.599112,68.7712665 122.729233,67.2164461 L123.929486,66.3431002 L122.953456,63.6039698 L124.272416,63.6039698 C126.29702,63.6039698 127.939125,65.2514178 127.939125,67.2759924 L127.939125,67.3950851 Z M126.000254,78.8345936 C126.000254,80.8591682 124.358148,82.5132325 122.333545,82.5132325 L107.46227,82.5132325 C105.444261,82.5132325 103.795561,80.8591682 103.795561,78.8345936 L103.795561,78.7221172 C103.795561,76.6909263 105.444261,75.0434783 107.46227,75.0434783 L122.333545,75.0434783 C124.358148,75.0434783 126.000254,76.6909263 126.000254,78.7221172 L126.000254,78.8345936 Z M123.217248,90.2741021 C123.217248,92.305293 121.568548,93.952741 119.550539,93.952741 L104.679264,93.952741 C102.654661,93.952741 101.012555,92.305293 101.012555,90.2741021 L101.012555,90.1616257 C101.012555,88.1304348 102.654661,86.4829868 104.679264,86.4829868 L119.550539,86.4829868 C121.568548,86.4829868 123.217248,88.1304348 123.217248,90.1616257 L123.217248,90.2741021 Z M97.9987318,93.952741 L76.9415346,93.952741 C72.9780596,93.952741 69.6740647,91.0085066 69.1135067,87.1776938 L69.1135067,59.826087 L72.3779328,59.826087 C75.4511097,59.826087 78.2604946,58.6483932 80.3708307,56.7098299 C82.738364,54.5463138 84.2353836,51.4300567 84.2485732,47.9697543 L108.708687,47.9697543 C110.693722,47.9697543 113.272289,48.7306238 115.527711,54.5926276 L117.328091,59.6275992 L117.328091,59.6342155 L118.745973,63.5973535 L118.745973,63.6039698 L119.161446,64.7618147 C116.39163,66.1247637 113.252505,65.694707 110.568421,63.6039698 C110.054027,63.2069943 109.559417,62.7438563 109.084591,62.2277883 C108.675713,61.7712665 108.009639,60.9376181 107.350159,59.9187146 C106.367533,58.3771267 105.411287,56.4253308 105.411287,54.7514178 L101.454407,54.7514178 C101.454407,54.8043478 101.454407,54.8638941 101.461002,54.9168242 C101.474192,55.9026465 101.672036,56.8950851 101.968802,57.8412098 L93.4285352,57.8412098 L93.4285352,71.4574669 C93.4285352,75.8374291 89.8805327,79.3969754 85.5147749,79.3969754 L83.4835764,79.3969754 L83.4835764,83.3667297 L85.5147749,83.3667297 C92.0568167,83.3667297 97.3854153,78.0274102 97.3854153,71.4574669 L97.3854153,61.8109641 L104.092327,61.8109641 C104.039569,61.8506616 103.993405,61.8969754 103.947242,61.9499055 C102.608497,63.326087 101.784147,65.205104 101.784147,67.2759924 L101.784147,67.3950851 C101.784147,69.2145558 102.417248,70.8884688 103.485606,72.205104 C101.302727,73.5415879 99.838681,75.963138 99.838681,78.7221172 L99.838681,78.8345936 C99.838681,80.5085066 100.379455,82.0500945 101.289537,83.3137996 C98.783513,84.5642722 97.0556753,87.1644612 97.0556753,90.1616257 L97.0556753,90.2741021 C97.0556753,91.6039698 97.3986049,92.8610586 97.9987318,93.952741 L97.9987318,93.952741 Z M65.1566265,96.0302457 L46.0976538,96.0302457 L46.0976538,56.4319471 L65.1566265,59.5283554 L65.1566265,96.0302457 Z M42.1407736,91.5179584 L5.42092581,95.6332703 C5.01864299,95.6795841 4.62954978,95.5406427 4.34597337,95.2561437 C4.09537096,95.0047259 3.95688015,94.673913 3.95688015,94.3166352 L3.95688015,51.1455577 C3.95688015,50.3383743 4.66252378,49.7032136 5.48687381,49.8355388 L42.1407736,55.7901701 L42.1407736,91.5179584 Z M254.730755,45.852552 C254.447178,45.852552 254.163602,45.8724008 253.880025,45.9187146 L192.719848,55.8563327 L187.536335,55.8563327 C183.170577,55.8563327 179.622575,52.2967864 179.622575,47.9168242 L179.622575,47.7977316 C179.622575,45.7069943 177.927711,44 175.837159,44 L151.212175,44 C148.040076,44 145.43513,45.3695652 143.344578,48.1880907 L135.641852,48.1880907 C133.38643,48.1880907 131.355231,49.1805293 129.957134,50.7485822 C128.565631,49.1805293 126.534432,48.1880907 124.272416,48.1880907 L116.576284,48.1880907 C114.485732,45.3761815 111.880786,44 108.708687,44 L84.0771084,44 C81.9931516,44 80.2916931,45.7069943 80.2916931,47.7977316 L80.2916931,47.9168242 C80.2916931,52.2967864 76.7436906,55.8563327 72.3779328,55.8563327 L67.2801522,55.8563327 L6.11997464,45.9187146 C5.83639822,45.8724008 5.55282181,45.852552 5.2692454,45.852552 C2.36093849,45.852552 0,48.221172 0,51.1455577 L0,94.3166352 C0,95.7391304 0.553963221,97.0689981 1.55637286,98.0746692 C2.6906785,99.2060491 4.23386176,99.7618147 5.86277743,99.5765595 L42.1407736,95.5075614 L42.1407736,97.3534972 C42.1407736,98.81569 43.3212429,100 44.7786937,100 L66.4755866,100 C67.9264426,100 69.1135067,98.81569 69.1135067,97.3534972 L69.1135067,94.9517958 C71.2040583,96.8043478 73.9474952,97.9224953 76.9415346,97.9224953 L119.550539,97.9224953 C123.751427,97.9224953 127.174128,94.4886578 127.174128,90.2741021 L127.174128,90.1616257 C127.174128,88.4877127 126.633354,86.9395085 125.723272,85.6824197 C128.136969,84.4782609 129.825238,82.0236295 129.950539,79.1720227 C129.957134,79.0595463 129.957134,78.9470699 129.957134,78.8345936 C129.957134,78.9470699 129.957134,79.0595463 129.970323,79.1720227 C130.08903,82.0302457 131.783893,84.4782609 134.19759,85.6824197 C133.287508,86.9395085 132.746734,88.4877127 132.746734,90.1616257 L132.746734,90.2741021 C132.746734,94.4886578 136.162841,97.9224953 140.370323,97.9224953 L182.972733,97.9224953 C186.006341,97.9224953 188.782752,96.7712665 190.886493,94.879017 L190.886493,97.3534972 C190.886493,98.81569 192.073557,100 193.524413,100 L215.221306,100 C216.678757,100 217.859226,98.81569 217.859226,97.3534972 L217.859226,95.5075614 L254.137223,99.5765595 C257.282942,99.9338374 260,97.4328922 260,94.3166352 L260,51.1455577 C260,48.221172 257.639062,45.852552 254.730755,45.852552 L254.730755,45.852552 Z" id="Fill-33"></path>
                <path d="M205.051308,85.0004464 C203.394976,84.972158 202.028731,86.2918432 202.000446,87.9490152 C201.972161,89.6055292 203.292359,90.9712652 204.948692,90.9995536 C206.605024,91.0278419 207.970611,89.7081568 207.999554,88.0516427 C208.027839,86.3944708 206.707641,85.0287348 205.051308,85.0004464" id="Fill-35"></path>
                <path d="M130.03,79.51 L130,79.51 C130.01,79.34 130.01,79.17 130.01,79 C130.01,79.17 130.01,79.34 130.03,79.51" id="Fill-37"></path>
            </g>
        </g>
    </g>
</svg>