<svg height="23" viewBox="0 0 23 23" width="23" xmlns="http://www.w3.org/2000/svg"><g fill="none" fill-rule="evenodd"><path d="m7.91174863.62895442c-2.84672131.95576408-5.27240437 3.0461126-6.62349726 5.69142092-.47131148.91260053-.81065574 1.88069705-1.01803279 2.88579088-.51530055 2.49115278-.15710383 5.14879358 1.01174863 7.41796248.76038252 1.4798927 1.85382514 2.7994638 3.17349727 3.8292225 1.25054645.9742627 2.70218579 1.7018767 4.24808743 2.102681 1.94808739.5117962 4.02185789.4994638 5.98251369.0616622 1.7721311-.4008043 3.45-1.233244 4.7885246-2.4418231 1.4139344-1.2764075 2.425683-2.9536193 2.959836-4.7603217.5844263-1.9670241.6598361-4.0697051.2953552-6.0922252h-10.9972677v4.4766756h6.3721311c-.245082 1.430563-1.1122951 2.7378016-2.3377049 3.5455764-.7729508.5117963-1.6590164.8386059-2.5765027.9989276-.9174864.1541555-1.8726776.1726542-2.790164-.0061662-.93633877-.1849866-1.82240435-.5672922-2.60163932-1.1037533-1.2442623-.8571046-2.1931694-2.1088472-2.67704918-3.5209116-.49644809-1.4367292-.50273224-3.0337801 0-4.46434314.35191257-1.01126005.93005464-1.94235925 1.69672131-2.70697051.94262295-.94959786 2.16803279-1.62788204 3.49398909-1.90536193 1.1311475-.23431635 2.3251366-.19115282 3.4311475.13565684.942623.27747989 1.8098361.78927613 2.5199454 1.45522788.7163934-.70294906 1.4327869-1.40589813 2.1491803-2.10884719.3770492-.37613941.7729508-.73994638 1.1374317-1.12841823-1.0871585-.98659517-2.3691257-1.78203753-3.7642077-2.28766756-2.5136612-.91260054-5.34153-.93109919-7.87404367-.07399464z" fill="#fff"/><path d="m7.91174863.62895442c2.52622947-.85710455 5.36038247-.8386059 7.87404367.06782842 1.395082.50563003 2.6707651 1.29490617 3.7642077 2.28766756-.3644809.38847185-.7603825.75227882-1.1374317 1.12841823-.7163934.70294906-1.4327869 1.40589813-2.1491803 2.10884719-.7101093-.66595174-1.5773224-1.17158177-2.5199454-1.45522788-1.1060109-.32680966-2.3-.37613941-3.4311475-.13565684-1.31967215.27747989-2.54508199.95576407-3.49398909 1.90536193-.76666667.75844504-1.34480874 1.69571046-1.69672131 2.70697051-1.27568306-.97426274-2.55136612-1.94235925-3.83333333-2.91662199 1.35109289-2.65147453 3.77677595-4.74182305 6.62349726-5.69758713z" fill="#ea4335"/><path d="m.27650273 9.2c.20737705-.99892761.54672131-1.97319035 1.01803279-2.88579088 1.27568306.97426273 2.55136612 1.94235924 3.83333333 2.91662198-.50273224 1.4367292-.50273224 3.0337802 0 4.4643432-1.27568306.9742627-2.55136612 1.9485254-3.82704918 2.9166219-1.18142076-2.2630026-1.53961748-4.9206434-1.02431694-7.4117962z" fill="#fbbc05"/><path d="m11.7325137 9.31715818h10.9972677c.3644809 2.01635392.2827869 4.11903482-.2953552 6.09222522-.534153 1.8067024-1.5459016 3.4839142-2.959836 4.7603217-1.2379782-.9434316-2.4759563-1.8868633-3.7139345-2.8302949 1.2254099-.8077748 2.092623-2.1150134 2.337705-3.5455764h-6.3721312c.0062842-1.4922252.0062842-2.9844504.0062842-4.47667562z" fill="#4285f4"/><path d="m1.28825137 16.6179625c1.27568306-.9680965 2.55136612-1.9423593 3.82704918-2.916622.49016393 1.4120643 1.43278688 2.663807 2.67704918 3.5209115.77923497.5364611 1.6715847.9187668 2.60163937 1.1037534.9174863.1849866 1.8663934.1603217 2.7901639.0061662.9174863-.1603217 1.8035519-.4871314 2.5765027-.9989276 1.2379782.9434316 2.4759563 1.8868632 3.7139345 2.8302949-1.3385246 1.2147453-3.0163935 2.0410187-4.7885246 2.441823-1.9606558.4378016-4.0344263.4501341-5.98251369-.0616622-1.54590164-.4008043-2.99754098-1.122252-4.24808743-2.1026809-1.31338798-1.0235925-2.4068306-2.3431636-3.16721311-3.8230563z" fill="#34a853"/></g></svg>