<?xml version="1.0" encoding="UTF-8" standalone="no"?>
<svg width="147px" height="100px" viewBox="0 0 147 100" version="1.1" xmlns="http://www.w3.org/2000/svg" xmlns:xlink="http://www.w3.org/1999/xlink">
    <!-- Generator: Sketch 3.8.3 (29802) - http://www.bohemiancoding.com/sketch -->
    <title>hands</title>
    <desc>Created with Sketch.</desc>
    <defs></defs>
    <g id="Page-1" stroke="none" stroke-width="1" fill="none" fill-rule="evenodd">
        <g id="signin" transform="translate(-439.000000, -88.000000)" stroke="#03363D" stroke-width="3">
            <g id="Group-5" transform="translate(395.000000, 90.000000)">
                <g id="hands" transform="translate(46.000000, 0.000000)">
                    <path d="M95.9055127,71 L104.0256,60.5019862 C104.385775,60.0348252 104.635863,59.5360832 104.792617,59.0295948 C105.684079,56.1861096 103.61098,53 100.310176,53 L100.286842,53 C98.7695606,53 97.3456137,53.7007415 96.4224414,54.8930747 L94.2948971,57.6507548 L92.0967538,60.5019862 L84,70.9958289" id="Stroke-1"></path>
                    <path d="M84.9247941,71 L93.0244848,60.5040726 C93.7444972,59.5689689 94.0419587,58.509304 93.9952746,57.4883783 C93.9013079,55.1509172 92.0076094,53 89.3077125,53 L89.1904037,53 C87.7348176,53 86.3654174,53.6704854 85.4736315,54.8237203 L84.3939121,56.2260777 L81.0913115,60.5040726 L73,71" id="Stroke-3"></path>
                    <path d="M72.8234322,71 L81.0121114,60.5040726 C82.1369266,59.06238 82.2398984,57.316734 81.6299421,55.8756374 C80.9412426,54.2468048 79.3336714,53 77.2506129,53 L77.1318925,53 C75.6666647,53 74.2971401,53.6627376 73.394017,54.7998808 L65,65.5526786" id="Stroke-5"></path>
                    <path d="M1.74856528,53 L24.2514347,53 C25.2166428,53 26,53.7825511 26,54.7480665 L26,86 L1.74856528,86 C0.78277439,86 0,85.2174489 0,84.2519335 L0,54.7480665 C0,53.7825511 0.78277439,53 1.74856528,53 L1.74856528,53 Z" id="Stroke-9"></path>
                    <path d="M26,86.1300639 C26,86.1300639 30.4472339,96 40.1069117,96 L79.017281,96 C86.3526409,96 87.9632703,95.011427 93.1610774,88.8319684 L115.044208,60.3651612 C117.356231,57.351476 115.212824,53 111.408436,53 L111.293684,53 C109.86982,53 108.530263,53.6580737 107.657912,54.7899605 L104.450705,58.9653653 L103.371097,60.3651612 L95.4250918,70.6708883" id="Stroke-11"></path>
                    <path d="M26,58.2680635 L34.824973,58.2680635 C37.3604777,53 43.0808595,53 43.0808595,53 L45.6712657,53 C51.5522197,53 55.7867191,54.0903987 60.6829881,60.5117684 L68.1985899,69.6825006 C68.9317906,70.5769869 70.0186041,71.0946267 71.1650418,71.0946267 L96,71.0982215 C96,71.0982215 96,82.9026858 81.7710667,82.9026858 L61.9061699,82.9026858 L61.6399271,82.9026858 L57.7808831,88" id="Stroke-13"></path>
                    <path d="M47.0944873,26 L38.9743999,36.4980138 C38.6142251,36.9651748 38.3641369,37.4639168 38.2073831,37.9704052 C37.3159205,40.8138904 39.3890197,44 42.6898245,44 L42.7131581,44 C44.2304394,44 45.6543863,43.2992585 46.5775586,42.1069253 L48.7051029,39.3492452 L50.9032462,36.4980138 L59,26.0041711" id="Stroke-15"></path>
                    <path d="M59.0752059,26 L50.9755152,36.4959274 C50.2555028,37.4310311 49.9580413,38.490696 50.0047254,39.5116217 C50.0986921,41.8490828 51.9923906,44 54.6922875,44 L54.8095963,44 C56.2651824,44 57.6345826,43.3295146 58.5263685,42.1762797 L59.6060879,40.7739223 L62.9086885,36.4959274 L71,26" id="Stroke-17"></path>
                    <path d="M70.1765678,26 L61.9878886,36.4959274 C60.8630734,37.93762 60.7601016,39.683266 61.3700579,41.1243626 C62.0587574,42.7531952 63.6663286,44 65.7493871,44 L65.8681075,44 C67.3333353,44 68.7028599,43.3372624 69.605983,42.2001192 L78,31.4473214" id="Stroke-19"></path>
                    <path d="M38,36.9684338 L39,36 C38.6735358,36.3176851 38.4468547,36.6564144 38.3047722,37 L38,36.9684338 L38,36.9684338 Z" id="Stroke-21"></path>
                    <path d="M141.251435,43 L118.748565,43 C117.783357,43 117,42.2174489 117,41.2519335 L117,10 L141.251435,10 C142.217226,10 143,10.7825511 143,11.7480665 L143,41.2519335 C143,42.2174489 142.217226,43 141.251435,43 L141.251435,43 Z" id="Stroke-23"></path>
                    <path d="M116,9.86993606 C118.199463,14.4890137 111.552766,0 101.893088,0 L62.982719,0 C55.6473591,0 54.0367297,0.988572983 48.8389226,7.16803156 L26.9557918,35.6348388 C24.6437688,38.648524 26.7871763,43 30.5915636,43 C32.1301801,43 33.4697366,42.3419263 34.3420876,41.2100395 L37.549295,37.0346347 L38.6289026,35.6348388 L46.5749082,25.3291117" id="Stroke-25"></path>
                    <path d="M117,38.7319365 L108.175027,38.7319365 C105.639522,44 99.9191405,44 99.9191405,44 L97.3287343,44 C91.4477803,44 87.2132809,42.9096013 82.3170119,36.4882316 L74.8014101,27.3174994 C74.0682094,26.4230131 72.9813959,25.9053733 71.8349582,25.9053733 L47,25.9017785 C47,25.9017785 47,14.0973142 61.2289333,14.0973142 L81.0938301,14.0973142 L81.3600729,14.0973142 L85.2191169,9" id="Stroke-27"></path>
                </g>
            </g>
        </g>
    </g>
</svg>
