<svg height="100" viewBox="0 0 147 100" width="147" xmlns="http://www.w3.org/2000/svg"><g fill="none" fill-rule="evenodd" stroke="#03363d" stroke-width="3" transform="translate(2 2)"><path d="m95.9055127 71 8.1200873-10.4980138c.360175-.467161.610263-.965903.767017-1.4723914.891462-2.8434852-1.181637-6.0295948-4.482441-6.0295948h-.023334c-1.5172814 0-2.9412283.7007415-3.8644006 1.8930747l-2.1275443 2.7576801-2.1981433 2.8512314-8.0967538 10.4938427"/><path d="m84.9247941 71 8.0996907-10.4959274c.7200124-.9351037 1.0174739-1.9947686.9707898-3.0156943-.0939667-2.3374611-1.9876652-4.4883783-4.6875621-4.4883783h-.1173088c-1.4555861 0-2.8249863.6704854-3.7167722 1.8237203l-1.0797194 1.4023574-3.3026006 4.2779949-8.0913115 10.4959274"/><path d="m72.8234322 71 8.1886792-10.4959274c1.1248152-1.4416926 1.227787-3.1873386.6178307-4.6284352-.6886995-1.6288326-2.2962707-2.8756374-4.3793292-2.8756374h-.1187204c-1.4652278 0-2.8347524.6627376-3.7378755 1.7998808l-8.394017 10.7527978"/><path d="m1.74856528 53h22.50286942c.9652081 0 1.7485653.7825511 1.7485653 1.7480665v31.2519335h-24.25143472c-.96579089 0-1.74856528-.7825511-1.74856528-1.7480665v-29.503867c0-.9655154.78277439-1.7480665 1.74856528-1.7480665z"/><path d="m26 86.1300639s4.4472339 9.8699361 14.1069117 9.8699361h38.9103693c7.3353599 0 8.9459893-.988573 14.1437964-7.1680316l21.8831306-28.4668072c2.312023-3.0136852.168616-7.3651612-3.635772-7.3651612h-.114752c-1.423864 0-2.763421.6580737-3.635772 1.7899605l-3.207207 4.1754048-1.079608 1.3997959-7.9460052 10.3057271"/><path d="m26 58.2680635h8.824973c2.5355047-5.2680635 8.2558865-5.2680635 8.2558865-5.2680635h2.5904062c5.880954 0 10.1154534 1.0903987 15.0117224 7.5117684l7.5156018 9.1707322c.7332007.8944863 1.8200142 1.4121261 2.9664519 1.4121261l24.8349582.0035948s0 11.8044643-14.2289333 11.8044643h-19.8648968-.2662428l-3.859044 5.0973142"/><path d="m47.0944873 26-8.1200874 10.4980138c-.3601748.467161-.610263.965903-.7670168 1.4723914-.8914626 2.8434852 1.1816366 6.0295948 4.4824414 6.0295948h.0233336c1.5172813 0 2.9412282-.7007415 3.8644005-1.8930747l2.1275443-2.7576801 2.1981433-2.8512314 8.0967538-10.4938427"/><path d="m59.0752059 26-8.0996907 10.4959274c-.7200124.9351037-1.0174739 1.9947686-.9707898 3.0156943.0939667 2.3374611 1.9876652 4.4883783 4.6875621 4.4883783h.1173088c1.4555861 0 2.8249863-.6704854 3.7167722-1.8237203l1.0797194-1.4023574 3.3026006-4.2779949 8.0913115-10.4959274"/><path d="m70.1765678 26-8.1886792 10.4959274c-1.1248152 1.4416926-1.227787 3.1873386-.6178307 4.6284352.6886995 1.6288326 2.2962707 2.8756374 4.3793292 2.8756374h.1187204c1.4652278 0 2.8347524-.6627376 3.7378755-1.7998808l8.394017-10.7527978"/><path d="m38 36.9684338 1-.9684338c-.3264642.3176851-.5531453.6564144-.6952278 1z"/><path d="m141.251435 43h-22.50287c-.965208 0-1.748565-.7825511-1.748565-1.7480665v-31.2519335h24.251435c.965791 0 1.748565.7825511 1.748565 1.7480665v29.503867c0 .9655154-.782774 1.7480665-1.748565 1.7480665z"/><path d="m116 9.86993606c2.199463 4.61907764-4.447234-9.86993606-14.106912-9.86993606h-38.910369c-7.3353599 0-8.9459893.98857298-14.1437964 7.16803156l-21.8831308 28.46680724c-2.312023 3.0136852-.1686155 7.3651612 3.6357718 7.3651612 1.5386165 0 2.878173-.6580737 3.750524-1.7899605l3.2072074-4.1754048 1.0796076-1.3997959 7.9460056-10.3057271"/><path d="m117 38.7319365h-8.824973c-2.535505 5.2680635-8.2558865 5.2680635-8.2558865 5.2680635h-2.5904062c-5.880954 0-10.1154534-1.0903987-15.0117224-7.5117684l-7.5156018-9.1707322c-.7332007-.8944863-1.8200142-1.4121261-2.9664519-1.4121261l-24.8349582-.0035948s0-11.8044643 14.2289333-11.8044643h19.8648968.2662428l3.859044-5.0973142"/></g></svg>